# xmcd
#
# Track frame offsets: 
#        150
#        17118
#        34931
#        51983
#        69108
#        94422
#        115493
#        134471
#        149574
#        174653
#        193330
#
# Disc length: 2976 seconds
#
# Revision: 3
# Processed by: cddbd v1.4PL0 Copyright (c) Steve Scherf et al.
# Submitted via: ExactAudioCopy v0.90a11
#
DISCID=ab0b9e0b
DTITLE=Bernard Allison - Across The Water
DYEAR=1900
DGENRE=
TTITLE0=The River's Rising
TTITLE1=Meet Me Half Way
TTITLE2=I Just Came Back To Say Goodbye
TTITLE3=I Want To Get You Back
TTITLE4=Love Is Free
TTITLE5=Coming Back (Across The Water)
TTITLE6=Change Your Way Of Living
TTITLE7=Feels Kinda Funny
TTITLE8=Work It Out
TTITLE9=There's No Higher Love
TTITLE10=I've Been Down
EXTD=
EXTT0=
EXTT1=
EXTT2=
EXTT3=
EXTT4=
EXTT5=
EXTT6=
EXTT7=
EXTT8=
EXTT9=
EXTT10=
PLAYORDER=
